# File created by Blade
# Date/Time:  Wed Jan 21 17:57:11 2015
# Frame Rate: 120.000 fps
#------------------------------------------------------
:FULLY-SPECIFIED
:DEGREES
817
root 19.525154 28.626813 -15.488159 -91.656258 1.479469 -178.847183
Spine 72.578717 1.139305 0.025790
Head 183.414594 1.333122 181.344729
LeftShoulder 12.523026 -43.234074 15.383573
LeftArm -2.327661 10.406317 -10.211523
LeftForeArm 31.000464 -0.000000 70.297460
LeftHand -4.325534 -0.000000 -29.990239
LeftHandThumb1 -26.253704 0.000000 33.147579
RightShoulder 6.311476 1.847084 -22.838596
RightArm 5.650375 29.958177 12.529150
RightForeArm -49.152857 0.000000 71.733320
RightHand 5.933339 -0.000000 19.562805
RightHandThumb1 -24.326973 -0.000000 -32.862282
LeftUpLeg -101.143841 34.424980 -15.256890
LeftLeg -1.365491 -0.000000 0.000000
LeftFoot -8.219211 11.353861 -20.892824
LeftToeBase 34.369692 -0.000000 -0.000000
RightUpLeg -94.698489 -32.863229 5.027810
RightLeg -4.122037 -0.000000 0.000000
RightFoot -9.424800 0.390807 30.287834
RightToeBase 29.638825 -0.000000 -0.000000
818
root 19.523671 28.627879 -15.467512 -91.926818 1.548166 -178.841512
Spine 72.545596 1.152434 0.007399
Head 183.316775 0.903799 181.210657
LeftShoulder 12.583295 -43.329984 15.334939
LeftArm -2.013068 10.723222 -10.302389
LeftForeArm 30.712194 -0.000000 69.667335
LeftHand -4.145727 -0.000000 -29.789425
LeftHandThumb1 -26.253704 0.000000 33.147579
RightShoulder 6.305663 1.858142 -22.764826
RightArm 6.019363 29.877508 12.627652
RightForeArm -49.148085 -0.000000 71.359631
RightHand 5.961210 -0.000000 19.517830
RightHandThumb1 -24.326973 -0.000000 -32.862282
LeftUpLeg -100.904766 34.485870 -15.174665
LeftLeg -1.310969 -0.000000 0.000000
LeftFoot -8.210684 11.360345 -20.903747
LeftToeBase 34.451252 -0.000000 -0.000000
RightUpLeg -94.549960 -32.861101 4.867211
RightLeg -3.975266 -0.000000 0.000000
RightFoot -9.371286 0.313365 30.217769
RightToeBase 29.587388 -0.000000 -0.000000
819
root 19.521891 28.629842 -15.446550 -92.254324 1.606387 -178.825728
Spine 72.492684 1.225412 0.142134
Head 183.027511 1.667997 181.473687
LeftShoulder 13.006750 -43.164220 15.078072
LeftArm -1.714427 10.873294 -10.281637
LeftForeArm 30.443233 -0.000000 69.010346
LeftHand -3.986402 -0.000000 -29.613836
LeftHandThumb1 -26.253704 0.000000 33.147579
RightShoulder 6.360044 1.935308 -22.742135
RightArm 6.123833 29.651707 12.685563
RightForeArm -49.127289 0.000000 70.971004
RightHand 5.957145 -0.000000 19.420408
RightHandThumb1 -24.326973 -0.000000 -32.862282
LeftUpLeg -100.657230 34.567512 -15.089717
LeftLeg -1.194384 -0.000000 0.000000
LeftFoot -8.230826 11.295061 -20.840700
LeftToeBase 34.519514 -0.000000 -0.000000
RightUpLeg -94.249738 -32.860411 4.594894
RightLeg -3.901952 -0.000000 0.000000
RightFoot -9.284447 0.192267 30.276871
RightToeBase 29.443975 -0.000000 -0.000000
820
root 19.521721 28.630036 -15.423992 -92.598961 1.664014 -178.794763
Spine 72.500281 1.262299 0.171725
Head 182.886415 1.992835 181.588655
LeftShoulder 13.159510 -43.115396 14.976904
LeftArm -1.374969 11.172720 -10.327357
LeftForeArm 30.273339 0.000000 68.360947
LeftHand -3.774597 0.000000 -29.309944
LeftHandThumb1 -26.253704 0.000000 33.147579
RightShoulder 6.397011 1.951011 -22.689684
RightArm 6.421973 29.558670 12.756594
RightForeArm -49.091706 -0.000000 70.592248
RightHand 5.957615 -0.000000 19.380079
RightHandThumb1 -24.326973 -0.000000 -32.862282
LeftUpLeg -100.535319 34.638891 -15.159639
LeftLeg -0.990041 -0.000000 0.000000
LeftFoot -8.280359 11.065665 -20.632436
LeftToeBase 34.631649 -0.000000 -0.000000
RightUpLeg -93.940894 -32.835105 4.336297
RightLeg -3.832807 -0.000000 0.000000
RightFoot -9.237123 0.052512 30.294860
RightToeBase 29.446997 -0.000000 -0.000000
821
root 19.522637 28.632919 -15.401541 -92.880969 1.723850 -178.773421
Spine 72.457621 1.303490 0.166957
Head 182.745178 1.213004 181.341779
LeftShoulder 13.286751 -43.098948 14.912044
LeftArm -1.098709 11.482913 -10.407789
LeftForeArm 30.192569 -0.000000 67.790692
LeftHand -3.599586 -0.000000 -29.035348
LeftHandThumb1 -26.253704 0.000000 33.147579
RightShoulder 6.454574 2.064622 -22.656303
RightArm 6.678375 29.387135 12.920573
RightForeArm -49.155032 0.000000 70.240151
RightHand 5.905644 0.000000 19.258550
RightHandThumb1 -24.326973 -0.000000 -32.862282
LeftUpLeg -100.292117 34.720812 -15.039693
LeftLeg -0.892052 -0.000000 0.000000
LeftFoot -8.352222 10.997884 -20.380118
LeftToeBase 34.667088 -0.000000 -0.000000
RightUpLeg -93.772745 -32.806206 4.202570
RightLeg -3.727502 -0.000000 0.000000
RightFoot -9.136969 -0.022101 30.270765
RightToeBase 29.773426 -0.000000 -0.000000
822
root 19.522922 28.635170 -15.376575 -93.208595 1.759943 -178.761902
Spine 72.441857 1.318111 0.188315
Head 182.569958 0.670909 181.168418
LeftShoulder 13.354302 -42.920669 14.922930
LeftArm -0.767523 11.647057 -10.522254
LeftForeArm 30.062692 0.000000 67.175230
LeftHand -3.449321 -0.000000 -28.745300
LeftHandThumb1 -26.253704 0.000000 33.147579
RightShoulder 6.564216 2.245826 -22.640085
RightArm 6.861052 29.121408 13.019626
RightForeArm -49.239074 -0.000000 69.865266
RightHand 5.855237 0.000000 19.148339
RightHandThumb1 -24.326973 -0.000000 -32.862282
LeftUpLeg -99.957468 34.805036 -14.790675
LeftLeg -0.785352 -0.000000 0.000000
LeftFoot -8.521457 10.924387 -19.964532
LeftToeBase 34.994441 -0.000000 -0.000000
RightUpLeg -93.520782 -32.795266 4.031543
RightLeg -3.650344 -0.000000 0.000000
RightFoot -9.060555 -0.100906 30.255865
RightToeBase 29.797511 -0.000000 -0.000000
823
root 19.521947 28.638099 -15.352488 -93.509278 1.779139 -178.770112
Spine 72.410968 1.265386 0.222902
Head 182.463853 1.049846 181.205216
LeftShoulder 13.422664 -42.767624 14.816168
LeftArm -0.409106 11.836873 -10.548213
LeftForeArm 29.832691 -0.000000 66.536055
LeftHand -3.349515 -0.000000 -28.426169
LeftHandThumb1 -26.253704 0.000000 33.147579
RightShoulder 6.607078 2.191861 -22.607027
RightArm 7.249515 29.066312 13.085108
RightForeArm -49.267015 -0.000000 69.480529
RightHand 5.825041 -0.000000 19.139422
RightHandThumb1 -24.326973 -0.000000 -32.862282
LeftUpLeg -99.600266 34.864669 -14.475189
LeftLeg -0.695691 -0.000000 0.000000
LeftFoot -8.744207 10.905333 -19.696402
LeftToeBase 34.768329 -0.000000 -0.000000
RightUpLeg -93.227623 -32.810040 3.815733
RightLeg -3.631691 -0.000000 0.000000
RightFoot -8.974099 -0.223270 30.253836
RightToeBase 29.850427 -0.000000 -0.000000
